HIERARCHY
ROOT Pelvis
{
	OFFSET 0.000000 0.941512 0.000000
	CHANNELS 6 Xposition Yposition Zposition Zrotation Yrotation Xrotation 
	JOINT Pelvis_L_Hip
	{
		OFFSET 0.000000 0.000000 0.000000
		CHANNELS 3 Zrotation Yrotation Xrotation
		JOINT L_Hip
		{
			OFFSET 0.062321 -0.080322 -0.016990
			CHANNELS 3 Zrotation Yrotation Xrotation
			JOINT L_Knee
			{
				OFFSET 0.093051 -0.381305 -0.029784
				CHANNELS 3 Zrotation Yrotation Xrotation
				JOINT L_Ankle
				{
					OFFSET -0.010371 -0.431000 -0.033614
					CHANNELS 3 Zrotation Yrotation Xrotation
					End Site #name: L_Foot
					{
						OFFSET 0.069299 -0.038670 0.119418
					}
				}
			}
		}
	}
	JOINT Pelvis_R_Hip
	{
		OFFSET 0.000000 0.000000 0.000000
		CHANNELS 3 Zrotation Yrotation Xrotation
		JOINT R_Hip
		{
			OFFSET -0.055334 -0.094904 -0.002373
			CHANNELS 3 Zrotation Yrotation Xrotation
			JOINT R_Knee
			{
				OFFSET -0.064207 -0.384370 -0.019592
				CHANNELS 3 Zrotation Yrotation Xrotation
				JOINT R_Ankle
				{
					OFFSET 0.025418 -0.419734 -0.065953
					CHANNELS 3 Zrotation Yrotation Xrotation
					End Site #name: R_Foot
					{
						OFFSET -0.057233 -0.039888 0.132134
					}
				}
			}
		}
	}
	JOINT Pelvis_Spine1
	{
		OFFSET 0.000000 0.000000 0.000000
		CHANNELS 3 Zrotation Yrotation Xrotation
		JOINT Spine1
		{
			OFFSET -0.005562 0.124093 -0.043360
			CHANNELS 3 Zrotation Yrotation Xrotation
			JOINT Spine2
			{
				OFFSET 0.012244 0.139499 0.029894
				CHANNELS 3 Zrotation Yrotation Xrotation
				JOINT Spine3
				{
					OFFSET -0.002556 0.056561 0.009225
					CHANNELS 3 Zrotation Yrotation Xrotation
					JOINT Spine3_Neck
					{
						OFFSET 0.000000 0.000000 0.000000
						CHANNELS 3 Zrotation Yrotation Xrotation
						JOINT Neck
						{
							OFFSET -0.005205 0.217920 -0.024551
							CHANNELS 3 Zrotation Yrotation Xrotation
							End Site #name: Head
							{
								OFFSET 0.002365 0.091850 0.046637
							}
						}
					}
					JOINT Spine3_L_Collar
					{
						OFFSET 0.000000 0.000000 0.000000
						CHANNELS 3 Zrotation Yrotation Xrotation
						JOINT L_Collar
						{
							OFFSET 0.072225 0.116603 -0.009480
							CHANNELS 3 Zrotation Yrotation Xrotation
							JOINT L_Shoulder
							{
								OFFSET 0.115937 -0.058643 -0.021018
								CHANNELS 3 Zrotation Yrotation Xrotation
								JOINT L_Elbow
								{
									OFFSET 0.021994 -0.254722 -0.024492
									CHANNELS 3 Zrotation Yrotation Xrotation
									End Site #name: L_Wrist
									{
										OFFSET 0.048810 -0.240214 0.103329
									}
								}
							}
						}
					}
					JOINT Spine3_R_Collar
					{
						OFFSET 0.000000 0.000000 0.000000
						CHANNELS 3 Zrotation Yrotation Xrotation
						JOINT R_Collar
						{
							OFFSET -0.073372 0.120704 -0.024611
							CHANNELS 3 Zrotation Yrotation Xrotation
							JOINT R_Shoulder
							{
								OFFSET -0.108089 -0.054969 -0.020504
								CHANNELS 3 Zrotation Yrotation Xrotation
								JOINT R_Elbow
								{
									OFFSET -0.033684 -0.260739 0.009889
									CHANNELS 3 Zrotation Yrotation Xrotation
									End Site #name: R_Wrist
									{
										OFFSET -0.067980 -0.232763 0.118463
									}
								}
							}
						}
					}
				}
			}
		}
	}
}
MOTION
Frames: 7
Frame Time: 0.041667
-0.079659 0.961568 2.202798 -2.512023 -5.574147 -2.636183 0.000000 0.000000 0.000000 -4.624478 -2.990645 -11.676449 3.341775 -1.385074 24.904261 2.843117 -7.773405 -8.913175 0.000000 0.000000 0.000000 10.895859 -1.128424 2.329135 -6.387542 2.496438 11.740801 -2.689341 7.790972 -9.810039 0.000000 0.000000 0.000000 5.346027 -1.329279 1.565247 -7.493076 5.604282 32.360660 5.558548 4.730706 -32.434310 0.000000 0.000000 0.000000 -0.030579 -0.534380 21.237889 0.000000 0.000000 0.000000 18.622923 -14.695512 -7.440326 -11.371181 -0.470588 -5.375860 8.950318 5.313182 14.429897 0.000000 0.000000 0.000000 -25.684953 18.529392 -9.877070 7.006890 1.032289 -2.246713 -4.361271 3.242616 -19.036180 
-0.071615 0.974358 2.169762 -3.287709 -4.799733 -0.124877 0.000000 0.000000 0.000000 -4.597785 -3.293050 -12.870900 4.845274 -1.490415 17.882876 0.572600 -7.936865 -5.074383 0.000000 0.000000 0.000000 10.535807 0.365122 -3.491448 -6.146497 2.725182 13.984342 -0.826389 9.995263 -7.170275 0.000000 0.000000 0.000000 5.976833 -1.787190 3.648834 -7.008061 5.125662 31.156202 5.567720 4.094278 -31.786190 0.000000 0.000000 0.000000 -1.142344 0.277238 19.884454 0.000000 0.000000 0.000000 23.829385 -18.817468 -10.700002 -7.496267 -1.806693 -13.424807 9.327451 4.671754 7.015317 0.000000 0.000000 0.000000 -30.180400 19.815616 -10.970937 6.897199 1.404366 -4.176790 -3.368130 3.606063 -17.986535 
-0.064075 0.977426 2.127581 -4.274964 -4.089145 0.639166 0.000000 0.000000 0.000000 -4.152508 -3.771352 -14.725497 5.580017 -1.422713 13.916678 -1.188152 -6.480132 -1.394812 0.000000 0.000000 0.000000 9.577246 1.470229 -7.782809 -4.674204 3.044906 20.135075 -1.368025 9.569119 -8.103293 0.000000 0.000000 0.000000 6.182486 -2.034652 4.934152 -6.337439 4.690534 30.707959 5.784919 3.862563 -31.113860 0.000000 0.000000 0.000000 -1.978726 0.837683 23.286378 0.000000 0.000000 0.000000 30.930800 -21.917744 -13.747652 -1.494165 -2.109115 -19.305462 12.986521 5.055634 -4.042651 0.000000 0.000000 0.000000 -34.083548 22.177617 -13.367111 5.057204 1.389258 -5.339927 0.136412 3.922130 -11.820031 
-0.057847 0.969246 2.085588 -4.174258 -3.643907 -0.708430 0.000000 0.000000 0.000000 -4.332972 -4.398815 -16.894601 5.031741 -1.363618 14.629331 -2.051374 -4.584734 1.026171 0.000000 0.000000 0.000000 8.179606 1.291047 -7.083003 -2.212594 3.088858 28.811715 -4.065183 4.802228 -11.618633 0.000000 0.000000 0.000000 5.530103 -1.805948 4.587305 -6.208506 4.636995 31.058224 5.589784 4.140788 -30.614634 0.000000 0.000000 0.000000 -2.760814 1.376754 29.761617 0.000000 0.000000 0.000000 36.060707 -22.287655 -14.308775 6.175992 -1.456041 -22.656686 19.599916 7.668007 -15.916937 0.000000 0.000000 0.000000 -34.949277 23.690734 -15.109774 3.151348 1.159220 -5.439735 2.391936 2.944956 -5.061618 
-0.051267 0.953019 2.043957 -2.729873 -3.496577 -2.499694 0.000000 0.000000 0.000000 -5.467203 -5.402102 -19.948921 3.743141 -1.263854 17.912754 -2.474994 -3.119377 2.530539 0.000000 0.000000 0.000000 7.127496 -0.052879 -1.270582 -1.108992 3.316316 35.772944 -5.205083 2.831794 -13.310140 0.000000 0.000000 0.000000 4.370638 -1.233760 2.513685 -6.846656 5.000403 31.576410 5.380151 5.097902 -29.846969 0.000000 0.000000 0.000000 -4.489530 2.722478 33.598600 0.000000 0.000000 0.000000 39.003158 -19.017154 -10.624117 12.397897 -0.657158 -25.872512 28.113117 12.946197 -24.473763 0.000000 0.000000 0.000000 -33.829467 22.807105 -14.392866 2.703383 1.311905 -6.682490 0.913475 0.328223 0.434188 
-0.043431 0.930043 1.995710 -0.881269 -3.772591 -2.867538 0.000000 0.000000 0.000000 -6.524266 -7.031015 -25.026324 2.439377 -1.061279 21.196458 -2.510123 -1.316338 3.632983 0.000000 0.000000 0.000000 7.207009 -1.738041 6.096520 -2.875575 4.301104 36.126018 -4.315880 6.152369 -12.756363 0.000000 0.000000 0.000000 3.574655 -0.821029 0.598721 -8.087774 5.667543 31.814076 5.739571 6.658248 -30.119732 0.000000 0.000000 0.000000 -7.131580 4.844288 33.731693 0.000000 0.000000 0.000000 39.877294 -14.567220 -5.359450 17.904739 0.107274 -24.419449 39.356639 20.023228 -24.462599 0.000000 0.000000 0.000000 -32.430465 21.177561 -12.921739 1.985100 1.453552 -8.099899 -3.511170 -2.859268 4.340235 
-0.035220 0.902435 1.937903 0.502182 -4.252006 -2.071055 0.000000 0.000000 0.000000 -5.653658 -8.746091 -31.647444 -0.119287 -0.366578 23.411227 -1.098167 2.399031 3.434832 0.000000 0.000000 0.000000 7.833583 -2.988541 11.198608 -5.624895 4.869556 30.380192 -5.550696 7.789745 -15.904319 0.000000 0.000000 0.000000 3.679581 -0.829232 0.429980 -9.781263 6.616812 32.241369 6.411602 8.160842 -30.196354 0.000000 0.000000 0.000000 -10.289272 6.906241 28.241256 0.000000 0.000000 0.000000 37.419502 -9.522100 -0.097623 24.207768 0.351403 -18.714418 50.488276 23.807359 -14.916220 0.000000 0.000000 0.000000 -30.635323 19.914011 -11.809104 -1.736924 0.971518 -8.592590 -5.090372 -3.490844 4.052766 
